<?xml version="1.0" encoding="UTF-8" standalone="no"?>
<svg
   xmlns:dc="http://purl.org/dc/elements/1.1/"
   xmlns:cc="http://creativecommons.org/ns#"
   xmlns:rdf="http://www.w3.org/1999/02/22-rdf-syntax-ns#"
   xmlns:svg="http://www.w3.org/2000/svg"
   xmlns="http://www.w3.org/2000/svg"
   xmlns:sodipodi="http://sodipodi.sourceforge.net/DTD/sodipodi-0.dtd"
   xmlns:inkscape="http://www.inkscape.org/namespaces/inkscape"
   preserveAspectRatio="xMinYMin meet"
   width="937.5"
   height="937.5"
   version="1.1"
   id="svg2"
   inkscape:version="0.91 r13725"
   sodipodi:docname="Epicyclic_Gearing_Stationary.svg">
  <metadata
     id="metadata202">
    <rdf:RDF>
      <cc:Work
         rdf:about="">
        <dc:format>image/svg+xml</dc:format>
        <dc:type
           rdf:resource="http://purl.org/dc/dcmitype/StillImage" />
        <dc:title></dc:title>
      </cc:Work>
    </rdf:RDF>
  </metadata>
  <defs
     id="defs200" />
  <sodipodi:namedview
     pagecolor="#ffffff"
     bordercolor="#666666"
     borderopacity="1"
     objecttolerance="10"
     gridtolerance="10"
     guidetolerance="10"
     inkscape:pageopacity="0"
     inkscape:pageshadow="2"
     inkscape:window-width="1920"
     inkscape:window-height="1017"
     id="namedview198"
     showgrid="false"
     borderlayer="true"
     inkscape:zoom="0.35600468"
     inkscape:cx="567.61889"
     inkscape:cy="474.70911"
     inkscape:window-x="1912"
     inkscape:window-y="397"
     inkscape:window-maximized="1"
     inkscape:current-layer="svg2" />
  <desc
     id="desc4">Matlab Figure Converted by PLOT2SVG written by Juerg Schwizer</desc>
  <polygon
     points="-46.875,984.375 984.375,984.375 984.375,-46.875 -46.875,-46.875 "
     id="polygon13"
     style="fill:#ffffff;fill-opacity:1;stroke:none;stroke-width:0.5pt;stroke-dasharray:none;stroke-opacity:1" />
  <polygon
     points="914.616,443.711 914.429,440.585 914.221,437.46 913.99,434.337 913.738,431.216 913.464,428.096 913.168,424.979 912.85,421.863 912.51,418.75 912.149,415.64 911.765,412.532 911.36,409.426 910.933,406.324 910.485,403.225 910.014,400.129 909.522,397.036 909.009,393.947 908.473,390.862 907.916,387.78 907.338,384.702 906.737,381.629 906.116,378.56 905.472,375.495 904.808,372.435 904.122,369.379 903.414,366.329 902.685,363.283 901.935,360.243 901.163,357.208 900.371,354.178 899.557,351.154 898.721,348.136 897.865,345.124 896.988,342.118 896.089,339.118 895.169,336.125 894.229,333.138 893.268,330.157 892.285,327.184 891.282,324.217 890.258,321.258 889.214,318.306 888.148,315.361 887.062,312.424 885.956,309.494 884.829,306.572 883.681,303.659 882.513,300.753 881.325,297.856 880.117,294.967 878.888,292.086 877.639,289.215 876.37,286.352 875.081,283.498 873.772,280.653 872.443,277.818 871.094,274.991 869.725,272.175 868.337,269.368 866.929,266.571 865.501,263.783 864.054,261.006 862.588,258.239 861.102,255.483 859.597,252.737 858.072,250.001 856.529,247.276 854.966,244.563 853.385,241.86 851.784,239.168 850.165,236.488 848.527,233.819 846.87,231.161 845.195,228.516 843.501,225.882 841.788,223.26 840.058,220.65 838.309,218.052 836.542,215.467 834.757,212.894 832.953,210.334 831.132,207.786 829.293,205.252 827.437,202.73 825.563,200.221 823.671,197.725 821.761,195.243 819.835,192.775 817.891,190.319 815.93,187.878 813.952,185.45 811.957,183.036 809.945,180.637 807.916,178.251 805.871,175.88 803.808,173.523 801.73,171.181 799.635,168.853 797.524,166.54 795.397,164.242 793.253,161.959 791.094,159.691 788.919,157.438 786.728,155.201 784.521,152.979 782.299,150.772 780.062,148.581 777.809,146.406 775.541,144.247 773.258,142.103 770.96,139.976 768.647,137.865 766.319,135.77 763.977,133.692 761.62,131.629 759.249,129.584 756.863,127.555 754.464,125.543 752.05,123.548 749.622,121.57 747.181,119.609 744.725,117.665 742.257,115.739 739.775,113.829 737.279,111.937 734.77,110.063 732.248,108.207 729.714,106.368 727.166,104.547 724.606,102.743 722.033,100.958 719.448,99.191 716.85,97.442 714.24,95.712 711.618,93.999 708.984,92.305 706.339,90.63 703.681,88.973 701.012,87.335 698.332,85.716 695.64,84.115 692.937,82.534 690.224,80.971 687.499,79.428 684.763,77.903 682.017,76.398 679.261,74.912 676.494,73.446 673.717,71.999 670.929,70.571 668.132,69.163 665.325,67.775 662.509,66.406 659.682,65.057 656.847,63.728 654.002,62.419 651.148,61.13 648.285,59.861 645.414,58.612 642.533,57.383 639.644,56.175 636.747,54.987 633.841,53.819 630.928,52.671 628.006,51.544 625.076,50.438 622.139,49.352 619.194,48.286 616.242,47.242 613.283,46.218 610.316,45.215 607.343,44.232 604.362,43.271 601.375,42.331 598.382,41.411 595.382,40.512 592.376,39.635 589.364,38.779 586.346,37.943 583.322,37.129 580.292,36.337 577.257,35.565 574.217,34.815 571.171,34.086 568.121,33.378 565.065,32.692 562.005,32.028 558.94,31.384 555.871,30.763 552.798,30.162 549.72,29.584 546.638,29.027 543.553,28.491 540.464,27.978 537.371,27.486 534.275,27.015 531.176,26.567 528.074,26.14 524.968,25.735 521.86,25.351 518.75,24.99 515.637,24.65 512.521,24.332 509.404,24.036 506.284,23.762 503.163,23.51 500.04,23.279 496.915,23.071 493.789,22.884 490.662,22.72 487.534,22.577 484.405,22.456 481.275,22.358 478.144,22.281 475.013,22.226 471.882,22.193 468.75,22.182 465.618,22.193 462.487,22.226 459.356,22.281 456.225,22.358 453.095,22.456 449.966,22.577 446.838,22.72 443.711,22.884 440.585,23.071 437.46,23.279 434.337,23.51 431.216,23.762 428.096,24.036 424.979,24.332 421.863,24.65 418.75,24.99 415.64,25.351 412.532,25.735 409.426,26.14 406.324,26.567 403.225,27.015 400.129,27.486 397.036,27.978 393.947,28.491 390.862,29.027 387.78,29.584 384.702,30.162 381.629,30.763 378.56,31.384 375.495,32.028 372.435,32.692 369.379,33.378 366.329,34.086 363.283,34.815 360.243,35.565 357.208,36.337 354.178,37.129 351.154,37.943 348.136,38.779 345.124,39.635 342.118,40.512 339.118,41.411 336.125,42.331 333.138,43.271 330.157,44.232 327.184,45.215 324.217,46.218 321.258,47.242 318.306,48.286 315.361,49.352 312.424,50.438 309.494,51.544 306.572,52.671 303.659,53.819 300.753,54.987 297.856,56.175 294.967,57.383 292.086,58.612 289.215,59.861 286.352,61.13 283.498,62.419 280.653,63.728 277.818,65.057 274.991,66.406 272.175,67.775 269.368,69.163 266.571,70.571 263.783,71.999 261.006,73.446 258.239,74.912 255.483,76.398 252.737,77.903 250.001,79.428 247.276,80.971 244.563,82.534 241.86,84.115 239.168,85.716 236.488,87.335 233.819,88.973 231.161,90.63 228.516,92.305 225.882,93.999 223.26,95.712 220.65,97.442 218.052,99.191 215.467,100.958 212.894,102.743 210.334,104.547 207.786,106.368 205.252,108.207 202.73,110.063 200.221,111.937 197.725,113.829 195.243,115.739 192.775,117.665 190.319,119.609 187.878,121.57 185.45,123.548 183.036,125.543 180.637,127.555 178.251,129.584 175.88,131.629 173.523,133.692 171.181,135.77 168.853,137.865 166.54,139.976 164.242,142.103 161.959,144.247 159.691,146.406 157.438,148.581 155.201,150.772 152.979,152.979 150.772,155.201 148.581,157.438 146.406,159.691 144.247,161.959 142.103,164.242 139.976,166.54 137.865,168.853 135.77,171.181 133.692,173.523 131.629,175.88 129.584,178.251 127.555,180.637 125.543,183.036 123.548,185.45 121.57,187.878 119.609,190.319 117.665,192.775 115.739,195.243 113.829,197.725 111.937,200.221 110.063,202.73 108.207,205.252 106.368,207.786 104.547,210.334 102.743,212.894 100.958,215.467 99.191,218.052 97.442,220.65 95.712,223.26 93.999,225.882 92.305,228.516 90.63,231.161 88.973,233.819 87.335,236.488 85.716,239.168 84.115,241.86 82.534,244.563 80.971,247.276 79.428,250.001 77.903,252.737 76.398,255.483 74.912,258.239 73.446,261.006 71.999,263.783 70.571,266.571 69.163,269.368 67.775,272.175 66.406,274.991 65.057,277.818 63.728,280.653 62.419,283.498 61.13,286.352 59.861,289.215 58.612,292.086 57.383,294.967 56.175,297.856 54.987,300.753 53.819,303.659 52.671,306.572 51.544,309.494 50.438,312.424 49.352,315.361 48.286,318.306 47.242,321.258 46.218,324.217 45.215,327.184 44.232,330.157 43.271,333.138 42.331,336.125 41.411,339.118 40.512,342.118 39.635,345.124 38.779,348.136 37.943,351.154 37.129,354.178 36.337,357.208 35.565,360.243 34.815,363.283 34.086,366.329 33.378,369.379 32.692,372.435 32.028,375.495 31.384,378.56 30.763,381.629 30.162,384.702 29.584,387.78 29.027,390.862 28.491,393.947 27.978,397.036 27.486,400.129 27.015,403.225 26.567,406.324 26.14,409.426 25.735,412.532 25.351,415.64 24.99,418.75 24.65,421.863 24.332,424.979 24.036,428.096 23.762,431.216 23.51,434.337 23.279,437.46 23.071,440.585 22.884,443.711 22.72,446.838 22.577,449.966 22.456,453.095 22.358,456.225 22.281,459.356 22.226,462.487 22.193,465.618 22.182,468.75 22.193,471.882 22.226,475.013 22.281,478.144 22.358,481.275 22.456,484.405 22.577,487.534 22.72,490.662 22.884,493.789 23.071,496.915 23.279,500.04 23.51,503.163 23.762,506.284 24.036,509.404 24.332,512.521 24.65,515.637 24.99,518.75 25.351,521.86 25.735,524.968 26.14,528.074 26.567,531.176 27.015,534.275 27.486,537.371 27.978,540.464 28.491,543.553 29.027,546.638 29.584,549.72 30.162,552.798 30.763,555.871 31.384,558.94 32.028,562.005 32.692,565.065 33.378,568.121 34.086,571.171 34.815,574.217 35.565,577.257 36.337,580.292 37.129,583.322 37.943,586.346 38.779,589.364 39.635,592.376 40.512,595.382 41.411,598.382 42.331,601.375 43.271,604.362 44.232,607.343 45.215,610.316 46.218,613.283 47.242,616.242 48.286,619.194 49.352,622.139 50.438,625.076 51.544,628.006 52.671,630.928 53.819,633.841 54.987,636.747 56.175,639.644 57.383,642.533 58.612,645.414 59.861,648.285 61.13,651.148 62.419,654.002 63.728,656.847 65.057,659.682 66.406,662.509 67.775,665.325 69.163,668.132 70.571,670.929 71.999,673.717 73.446,676.494 74.912,679.261 76.398,682.017 77.903,684.763 79.428,687.499 80.971,690.224 82.534,692.937 84.115,695.64 85.716,698.332 87.335,701.012 88.973,703.681 90.63,706.339 92.305,708.984 93.999,711.618 95.712,714.24 97.442,716.85 99.191,719.448 100.958,722.033 102.743,724.606 104.547,727.166 106.368,729.714 108.207,732.248 110.063,734.77 111.937,737.279 113.829,739.775 115.739,742.257 117.665,744.725 119.609,747.181 121.57,749.622 123.548,752.05 125.543,754.464 127.555,756.863 129.584,759.249 131.629,761.62 133.692,763.977 135.77,766.319 137.865,768.647 139.976,770.96 142.103,773.258 144.247,775.541 146.406,777.809 148.581,780.062 150.772,782.299 152.979,784.521 155.201,786.728 157.438,788.919 159.691,791.094 161.959,793.253 164.242,795.397 166.54,797.524 168.853,799.635 171.181,801.73 173.523,803.808 175.88,805.871 178.251,807.916 180.637,809.945 183.036,811.957 185.45,813.952 187.878,815.93 190.319,817.891 192.775,819.835 195.243,821.761 197.725,823.671 200.221,825.563 202.73,827.437 205.252,829.293 207.786,831.132 210.334,832.953 212.894,834.757 215.467,836.542 218.052,838.309 220.65,840.058 223.26,841.788 225.882,843.501 228.516,845.195 231.161,846.87 233.819,848.527 236.488,850.165 239.168,851.784 241.86,853.385 244.563,854.966 247.276,856.529 250.001,858.072 252.737,859.597 255.483,861.102 258.239,862.588 261.006,864.054 263.783,865.501 266.571,866.929 269.368,868.337 272.175,869.725 274.991,871.094 277.818,872.443 280.653,873.772 283.498,875.081 286.352,876.37 289.215,877.639 292.086,878.888 294.967,880.117 297.856,881.325 300.753,882.513 303.659,883.681 306.572,884.829 309.494,885.956 312.424,887.062 315.361,888.148 318.306,889.214 321.258,890.258 324.217,891.282 327.184,892.285 330.157,893.268 333.138,894.229 336.125,895.169 339.118,896.089 342.118,896.988 345.124,897.865 348.136,898.721 351.154,899.557 354.178,900.371 357.208,901.163 360.243,901.935 363.283,902.685 366.329,903.414 369.379,904.122 372.435,904.808 375.495,905.472 378.56,906.116 381.629,906.737 384.702,907.338 387.78,907.916 390.862,908.473 393.947,909.009 397.036,909.522 400.129,910.014 403.225,910.485 406.324,910.933 409.426,911.36 412.532,911.765 415.64,912.149 418.75,912.51 421.863,912.85 424.979,913.168 428.096,913.464 431.216,913.738 434.337,913.99 437.46,914.221 440.585,914.429 443.711,914.616 446.838,914.78 449.966,914.923 453.095,915.044 456.225,915.142 459.356,915.219 462.487,915.274 465.618,915.307 468.75,915.318 471.882,915.307 475.013,915.274 478.144,915.219 481.275,915.142 484.405,915.044 487.534,914.923 490.662,914.78 493.789,914.616 496.915,914.429 500.04,914.221 503.163,913.99 506.284,913.738 509.404,913.464 512.521,913.168 515.637,912.85 518.75,912.51 521.86,912.149 524.968,911.765 528.074,911.36 531.176,910.933 534.275,910.485 537.371,910.014 540.464,909.522 543.553,909.009 546.638,908.473 549.72,907.916 552.798,907.338 555.871,906.737 558.94,906.116 562.005,905.472 565.065,904.808 568.121,904.122 571.171,903.414 574.217,902.685 577.257,901.935 580.292,901.163 583.322,900.371 586.346,899.557 589.364,898.721 592.376,897.865 595.382,896.988 598.382,896.089 601.375,895.169 604.362,894.229 607.343,893.268 610.316,892.285 613.283,891.282 616.242,890.258 619.194,889.214 622.139,888.148 625.076,887.062 628.006,885.956 630.928,884.829 633.841,883.681 636.747,882.513 639.644,881.325 642.533,880.117 645.414,878.888 648.285,877.639 651.148,876.37 654.002,875.081 656.847,873.772 659.682,872.443 662.509,871.094 665.325,869.725 668.132,868.337 670.929,866.929 673.717,865.501 676.494,864.054 679.261,862.588 682.017,861.102 684.763,859.597 687.499,858.072 690.224,856.529 692.937,854.966 695.64,853.385 698.332,851.784 701.012,850.165 703.681,848.527 706.339,846.87 708.984,845.195 711.618,843.501 714.24,841.788 716.85,840.058 719.448,838.309 722.033,836.542 724.606,834.757 727.166,832.953 729.714,831.132 732.248,829.293 734.77,827.437 737.279,825.563 739.775,823.671 742.257,821.761 744.725,819.835 747.181,817.891 749.622,815.93 752.05,813.952 754.464,811.957 756.863,809.945 759.249,807.916 761.62,805.871 763.977,803.808 766.319,801.73 768.647,799.635 770.96,797.524 773.258,795.397 775.541,793.253 777.809,791.094 780.062,788.919 782.299,786.728 784.521,784.521 786.728,782.299 788.919,780.062 791.094,777.809 793.253,775.541 795.397,773.258 797.524,770.96 799.635,768.647 801.73,766.319 803.808,763.977 805.871,761.62 807.916,759.249 809.945,756.863 811.957,754.464 813.952,752.05 815.93,749.622 817.891,747.181 819.835,744.725 821.761,742.257 823.671,739.775 825.563,737.279 827.437,734.77 829.293,732.248 831.132,729.714 832.953,727.166 834.757,724.606 836.542,722.033 838.309,719.448 840.058,716.85 841.788,714.24 843.501,711.618 845.195,708.984 846.87,706.339 848.527,703.681 850.165,701.012 851.784,698.332 853.385,695.64 854.966,692.937 856.529,690.224 858.072,687.499 859.597,684.763 861.102,682.017 862.588,679.261 864.054,676.494 865.501,673.717 866.929,670.929 868.337,668.132 869.725,665.325 871.094,662.509 872.443,659.682 873.772,656.847 875.081,654.002 876.37,651.148 877.639,648.285 878.888,645.414 880.117,642.533 881.325,639.644 882.513,636.747 883.681,633.841 884.829,630.928 885.956,628.006 887.062,625.076 888.148,622.139 889.214,619.194 890.258,616.242 891.282,613.283 892.285,610.316 893.268,607.343 894.229,604.362 895.169,601.375 896.089,598.382 896.988,595.382 897.865,592.376 898.721,589.364 899.557,586.346 900.371,583.322 901.163,580.292 901.935,577.257 902.685,574.217 903.414,571.171 904.122,568.121 904.808,565.065 905.472,562.005 906.116,558.94 906.737,555.871 907.338,552.798 907.916,549.72 908.473,546.638 909.009,543.553 909.522,540.464 910.014,537.371 910.485,534.275 910.933,531.176 911.36,528.074 911.765,524.968 912.149,521.86 912.51,518.75 912.85,515.637 913.168,512.521 913.464,509.404 913.738,506.284 913.99,503.163 914.221,500.04 914.429,496.915 914.616,493.789 914.78,490.662 914.923,487.534 915.044,484.405 915.142,481.275 915.219,478.144 915.274,475.013 915.307,471.882 915.318,468.75 915.318,468.75 915.307,465.618 915.274,462.487 915.219,459.356 915.142,456.225 915.044,453.095 914.923,449.966 914.78,446.838 "
     id="polygon25"
     style="fill:#b56b17;fill-opacity:1;stroke:#000000;stroke-width:1.5pt;stroke-dasharray:none;stroke-opacity:1" />
  <polygon
     points="813.491,449.39 813.431,448.348 813.368,447.307 819.412,442.023 825.556,438.654 831.704,435.57 839.098,432.274 838.833,429.678 838.55,427.084 838.249,424.491 837.929,421.901 829.987,420.333 823.307,418.695 816.567,416.777 809.499,412.97 809.329,411.941 809.156,410.913 808.98,409.885 808.8,408.857 814.214,402.93 819.943,398.893 825.707,395.141 832.685,391.037 832.132,388.487 831.56,385.941 830.97,383.399 830.363,380.861 822.294,380.192 815.473,379.312 808.561,378.161 801.111,375.169 800.827,374.166 800.54,373.163 800.25,372.161 799.956,371.16 804.673,364.664 809.913,360.012 815.22,355.637 821.696,350.778 820.86,348.306 820.007,345.84 819.136,343.38 818.249,340.926 810.156,341.164 803.279,341.053 796.282,340.683 788.544,338.545 788.149,337.58 787.751,336.615 787.351,335.652 786.947,334.69 790.907,327.707 795.593,322.497 800.377,317.556 806.268,312.003 805.161,309.64 804.037,307.284 802.896,304.937 801.739,302.598 793.724,303.741 786.878,304.401 779.883,304.817 771.955,303.558 771.454,302.643 770.951,301.729 770.445,300.817 769.937,299.907 773.089,292.524 777.163,286.822 781.364,281.376 786.596,275.198 785.231,272.974 783.85,270.76 782.454,268.555 781.042,266.36 773.206,268.393 766.477,269.815 759.572,271.012 751.553,270.649 750.953,269.795 750.351,268.944 749.746,268.094 749.138,267.246 751.444,259.557 754.854,253.435 758.419,247.553 762.926,240.828 761.321,238.77 759.701,236.724 758.067,234.69 756.418,232.667 748.859,235.565 742.331,237.731 735.604,239.693 727.594,240.23 726.903,239.45 726.209,238.671 725.513,237.894 724.814,237.119 726.245,229.22 728.947,222.755 731.831,216.511 735.557,209.324 733.732,207.459 731.893,205.607 730.041,203.768 728.176,201.943 720.989,205.669 714.745,208.553 708.28,211.255 700.381,212.686 699.606,211.987 698.829,211.291 698.05,210.597 697.27,209.906 697.807,201.896 699.769,195.169 701.935,188.641 704.833,181.082 702.81,179.433 700.776,177.799 698.73,176.179 696.672,174.574 689.947,179.081 684.065,182.646 677.943,186.056 670.254,188.362 669.406,187.754 668.556,187.149 667.705,186.547 666.851,185.947 666.488,177.928 667.685,171.023 669.107,164.294 671.14,156.458 668.945,155.046 666.74,153.65 664.526,152.269 662.302,150.904 656.124,156.136 650.678,160.337 644.976,164.411 637.593,167.563 636.683,167.055 635.771,166.549 634.857,166.046 633.942,165.545 632.683,157.617 633.099,150.622 633.759,143.776 634.902,135.761 632.563,134.604 630.216,133.463 627.86,132.339 625.497,131.232 619.944,137.123 615.003,141.907 609.793,146.593 602.81,150.553 601.848,150.149 600.885,149.749 599.92,149.351 598.955,148.956 596.817,141.218 596.447,134.221 596.336,127.344 596.574,119.251 594.12,118.364 591.66,117.493 589.194,116.64 586.722,115.804 581.863,122.28 577.488,127.587 572.836,132.827 566.34,137.544 565.339,137.25 564.337,136.96 563.334,136.673 562.331,136.389 559.339,128.939 558.188,122.027 557.308,115.206 556.639,107.137 554.101,106.53 551.559,105.94 549.013,105.368 546.463,104.815 542.359,111.793 538.607,117.557 534.57,123.286 528.643,128.7 527.615,128.52 526.587,128.344 525.559,128.171 524.53,128.001 520.723,120.933 518.805,114.193 517.167,107.513 515.599,99.571 513.009,99.251 510.416,98.95 507.822,98.667 505.226,98.402 501.93,105.796 498.846,111.944 495.477,118.088 490.193,124.132 489.152,124.069 488.11,124.009 487.069,123.952 486.027,123.898 481.453,117.301 478.793,110.818 476.417,104.364 473.969,96.647 471.36,96.619 468.75,96.61 466.14,96.619 463.531,96.647 461.083,104.364 458.707,110.818 456.047,117.301 451.473,123.898 450.431,123.952 449.39,124.009 448.348,124.069 447.307,124.132 442.023,118.088 438.654,111.944 435.57,105.796 432.274,98.402 429.678,98.667 427.084,98.95 424.491,99.251 421.901,99.571 420.333,107.513 418.695,114.193 416.777,120.933 412.97,128.001 411.941,128.171 410.913,128.344 409.885,128.52 408.857,128.7 402.93,123.286 398.893,117.557 395.141,111.793 391.037,104.815 388.487,105.368 385.941,105.94 383.399,106.53 380.861,107.137 380.192,115.206 379.312,122.027 378.161,128.939 375.169,136.389 374.166,136.673 373.163,136.96 372.161,137.25 371.16,137.544 364.664,132.827 360.012,127.587 355.637,122.28 350.778,115.804 348.306,116.64 345.84,117.493 343.38,118.364 340.926,119.251 341.164,127.344 341.053,134.221 340.683,141.218 338.545,148.956 337.58,149.351 336.615,149.749 335.652,150.149 334.69,150.553 327.707,146.593 322.497,141.907 317.556,137.123 312.003,131.232 309.64,132.339 307.284,133.463 304.937,134.604 302.598,135.761 303.741,143.776 304.401,150.622 304.817,157.617 303.558,165.545 302.643,166.046 301.729,166.549 300.817,167.055 299.907,167.563 292.524,164.411 286.822,160.337 281.376,156.136 275.198,150.904 272.974,152.269 270.76,153.65 268.555,155.046 266.36,156.458 268.393,164.294 269.815,171.023 271.012,177.928 270.649,185.947 269.795,186.547 268.944,187.149 268.094,187.754 267.246,188.362 259.557,186.056 253.435,182.646 247.553,179.081 240.828,174.574 238.77,176.179 236.724,177.799 234.69,179.433 232.667,181.082 235.565,188.641 237.731,195.169 239.693,201.896 240.23,209.906 239.45,210.597 238.671,211.291 237.894,211.987 237.119,212.686 229.22,211.255 222.755,208.553 216.511,205.669 209.324,201.943 207.459,203.768 205.607,205.607 203.768,207.459 201.943,209.324 205.669,216.511 208.553,222.755 211.255,229.22 212.686,237.119 211.987,237.894 211.291,238.671 210.597,239.45 209.906,240.23 201.896,239.693 195.169,237.731 188.641,235.565 181.082,232.667 179.433,234.69 177.799,236.724 176.179,238.77 174.574,240.828 179.081,247.553 182.646,253.435 186.056,259.557 188.362,267.246 187.754,268.094 187.149,268.944 186.547,269.795 185.947,270.649 177.928,271.012 171.023,269.815 164.294,268.393 156.458,266.36 155.046,268.555 153.65,270.76 152.269,272.974 150.904,275.198 156.136,281.376 160.337,286.822 164.411,292.524 167.563,299.907 167.055,300.817 166.549,301.729 166.046,302.643 165.545,303.558 157.617,304.817 150.622,304.401 143.776,303.741 135.761,302.598 134.604,304.937 133.463,307.284 132.339,309.64 131.232,312.003 137.123,317.556 141.907,322.497 146.593,327.707 150.553,334.69 150.149,335.652 149.749,336.615 149.351,337.58 148.956,338.545 141.218,340.683 134.221,341.053 127.344,341.164 119.251,340.926 118.364,343.38 117.493,345.84 116.64,348.306 115.804,350.778 122.28,355.637 127.587,360.012 132.827,364.664 137.544,371.16 137.25,372.161 136.96,373.163 136.673,374.166 136.389,375.169 128.939,378.161 122.027,379.312 115.206,380.192 107.137,380.861 106.53,383.399 105.94,385.941 105.368,388.487 104.815,391.037 111.793,395.141 117.557,398.893 123.286,402.93 128.7,408.857 128.52,409.885 128.344,410.913 128.171,411.941 128.001,412.97 120.933,416.777 114.193,418.695 107.513,420.333 99.571,421.901 99.251,424.491 98.95,427.084 98.667,429.678 98.402,432.274 105.796,435.57 111.944,438.654 118.088,442.023 124.132,447.307 124.069,448.348 124.009,449.39 123.952,450.431 123.898,451.473 117.301,456.047 110.818,458.707 104.364,461.083 96.647,463.531 96.619,466.14 96.61,468.75 96.619,471.36 96.647,473.969 104.364,476.417 110.818,478.793 117.301,481.453 123.898,486.027 123.952,487.069 124.009,488.11 124.069,489.152 124.132,490.193 118.088,495.477 111.944,498.846 105.796,501.93 98.402,505.226 98.667,507.822 98.95,510.416 99.251,513.009 99.571,515.599 107.513,517.167 114.193,518.805 120.933,520.723 128.001,524.53 128.171,525.559 128.344,526.587 128.52,527.615 128.7,528.643 123.286,534.57 117.557,538.607 111.793,542.359 104.815,546.463 105.368,549.013 105.94,551.559 106.53,554.101 107.137,556.639 115.206,557.308 122.027,558.188 128.939,559.339 136.389,562.331 136.673,563.334 136.96,564.337 137.25,565.339 137.544,566.34 132.827,572.836 127.587,577.488 122.28,581.863 115.804,586.722 116.64,589.194 117.493,591.66 118.364,594.12 119.251,596.574 127.344,596.336 134.221,596.447 141.218,596.817 148.956,598.955 149.351,599.92 149.749,600.885 150.149,601.848 150.553,602.81 146.593,609.793 141.907,615.003 137.123,619.944 131.232,625.497 132.339,627.86 133.463,630.216 134.604,632.563 135.761,634.902 143.776,633.759 150.622,633.099 157.617,632.683 165.545,633.942 166.046,634.857 166.549,635.771 167.055,636.683 167.563,637.593 164.411,644.976 160.337,650.678 156.136,656.124 150.904,662.302 152.269,664.526 153.65,666.74 155.046,668.945 156.458,671.14 164.294,669.107 171.023,667.685 177.928,666.488 185.947,666.851 186.547,667.705 187.149,668.556 187.754,669.406 188.362,670.254 186.056,677.943 182.646,684.065 179.081,689.947 174.574,696.672 176.179,698.73 177.799,700.776 179.433,702.81 181.082,704.833 188.641,701.935 195.169,699.769 201.896,697.807 209.906,697.27 210.597,698.05 211.291,698.829 211.987,699.606 212.686,700.381 211.255,708.28 208.553,714.745 205.669,720.989 201.943,728.176 203.768,730.041 205.607,731.893 207.459,733.732 209.324,735.557 216.511,731.831 222.755,728.947 229.22,726.245 237.119,724.814 237.894,725.513 238.671,726.209 239.45,726.903 240.23,727.594 239.693,735.604 237.731,742.331 235.565,748.859 232.667,756.418 234.69,758.067 236.724,759.701 238.77,761.321 240.828,762.926 247.553,758.419 253.435,754.854 259.557,751.444 267.246,749.138 268.094,749.746 268.944,750.351 269.795,750.953 270.649,751.553 271.012,759.572 269.815,766.477 268.393,773.206 266.36,781.042 268.555,782.454 270.76,783.85 272.974,785.231 275.198,786.596 281.376,781.364 286.822,777.163 292.524,773.089 299.907,769.937 300.817,770.445 301.729,770.951 302.643,771.454 303.558,771.955 304.817,779.883 304.401,786.878 303.741,793.724 302.598,801.739 304.937,802.896 307.284,804.037 309.64,805.161 312.003,806.268 317.556,800.377 322.497,795.593 327.707,790.907 334.69,786.947 335.652,787.351 336.615,787.751 337.58,788.149 338.545,788.544 340.683,796.282 341.053,803.279 341.164,810.156 340.926,818.249 343.38,819.136 345.84,820.007 348.306,820.86 350.778,821.696 355.637,815.22 360.012,809.913 364.664,804.673 371.16,799.956 372.161,800.25 373.163,800.54 374.166,800.827 375.169,801.111 378.161,808.561 379.312,815.473 380.192,822.294 380.861,830.363 383.399,830.97 385.941,831.56 388.487,832.132 391.037,832.685 395.141,825.707 398.893,819.943 402.93,814.214 408.857,808.8 409.885,808.98 410.913,809.156 411.941,809.329 412.97,809.499 416.777,816.567 418.695,823.307 420.333,829.987 421.901,837.929 424.491,838.249 427.084,838.55 429.678,838.833 432.274,839.098 435.57,831.704 438.654,825.556 442.023,819.412 447.307,813.368 448.348,813.431 449.39,813.491 450.431,813.548 451.473,813.602 456.047,820.199 458.707,826.682 461.083,833.136 463.531,840.853 466.14,840.881 468.75,840.89 471.36,840.881 473.969,840.853 476.417,833.136 478.793,826.682 481.453,820.199 486.027,813.602 487.069,813.548 488.11,813.491 489.152,813.431 490.193,813.368 495.477,819.412 498.846,825.556 501.93,831.704 505.226,839.098 507.822,838.833 510.416,838.55 513.009,838.249 515.599,837.929 517.167,829.987 518.805,823.307 520.723,816.567 524.53,809.499 525.559,809.329 526.587,809.156 527.615,808.98 528.643,808.8 534.57,814.214 538.607,819.943 542.359,825.707 546.463,832.685 549.013,832.132 551.559,831.56 554.101,830.97 556.639,830.363 557.308,822.294 558.188,815.473 559.339,808.561 562.331,801.111 563.334,800.827 564.337,800.54 565.339,800.25 566.34,799.956 572.836,804.673 577.488,809.913 581.863,815.22 586.722,821.696 589.194,820.86 591.66,820.007 594.12,819.136 596.574,818.249 596.336,810.156 596.447,803.279 596.817,796.282 598.955,788.544 599.92,788.149 600.885,787.751 601.848,787.351 602.81,786.947 609.793,790.907 615.003,795.593 619.944,800.377 625.497,806.268 627.86,805.161 630.216,804.037 632.563,802.896 634.902,801.739 633.759,793.724 633.099,786.878 632.683,779.883 633.942,771.955 634.857,771.454 635.771,770.951 636.683,770.445 637.593,769.937 644.976,773.089 650.678,777.163 656.124,781.364 662.302,786.596 664.526,785.231 666.74,783.85 668.945,782.454 671.14,781.042 669.107,773.206 667.685,766.477 666.488,759.572 666.851,751.553 667.705,750.953 668.556,750.351 669.406,749.746 670.254,749.138 677.943,751.444 684.065,754.854 689.947,758.419 696.672,762.926 698.73,761.321 700.776,759.701 702.81,758.067 704.833,756.418 701.935,748.859 699.769,742.331 697.807,735.604 697.27,727.594 698.05,726.903 698.829,726.209 699.606,725.513 700.381,724.814 708.28,726.245 714.745,728.947 720.989,731.831 728.176,735.557 730.041,733.732 731.893,731.893 733.732,730.041 735.557,728.176 731.831,720.989 728.947,714.745 726.245,708.28 724.814,700.381 725.513,699.606 726.209,698.829 726.903,698.05 727.594,697.27 735.604,697.807 742.331,699.769 748.859,701.935 756.418,704.833 758.067,702.81 759.701,700.776 761.321,698.73 762.926,696.672 758.419,689.947 754.854,684.065 751.444,677.943 749.138,670.254 749.746,669.406 750.351,668.556 750.953,667.705 751.553,666.851 759.572,666.488 766.477,667.685 773.206,669.107 781.042,671.14 782.454,668.945 783.85,666.74 785.231,664.526 786.596,662.302 781.364,656.124 777.163,650.678 773.089,644.976 769.937,637.593 770.445,636.683 770.951,635.771 771.454,634.857 771.955,633.942 779.883,632.683 786.878,633.099 793.724,633.759 801.739,634.902 802.896,632.563 804.037,630.216 805.161,627.86 806.268,625.497 800.377,619.944 795.593,615.003 790.907,609.793 786.947,602.81 787.351,601.848 787.751,600.885 788.149,599.92 788.544,598.955 796.282,596.817 803.279,596.447 810.156,596.336 818.249,596.574 819.136,594.12 820.007,591.66 820.86,589.194 821.696,586.722 815.22,581.863 809.913,577.488 804.673,572.836 799.956,566.34 800.25,565.339 800.54,564.337 800.827,563.334 801.111,562.331 808.561,559.339 815.473,558.188 822.294,557.308 830.363,556.639 830.97,554.101 831.56,551.559 832.132,549.013 832.685,546.463 825.707,542.359 819.943,538.607 814.214,534.57 808.8,528.643 808.98,527.615 809.156,526.587 809.329,525.559 809.499,524.53 816.567,520.723 823.307,518.805 829.987,517.167 837.929,515.599 838.249,513.009 838.55,510.416 838.833,507.822 839.098,505.226 831.704,501.93 825.556,498.846 819.412,495.477 813.368,490.193 813.431,489.152 813.491,488.11 813.548,487.069 813.602,486.027 820.199,481.453 826.682,478.793 833.136,476.417 840.853,473.969 840.881,471.36 840.89,468.75 840.89,468.75 840.881,466.14 840.853,463.531 833.136,461.083 826.682,458.707 820.199,456.047 813.602,451.473 813.548,450.431 "
     id="polygon28"
     style="fill:#ffffff;fill-opacity:1;stroke:#000000;stroke-width:1.5pt;stroke-dasharray:none;stroke-opacity:1" />
  <polygon
     points="633.576,447.05 633.458,446.172 633.335,445.295 626.149,440.842 619.261,438.811 612.501,437.703 604.501,437.097 603.965,434.88 603.393,432.673 602.785,430.474 602.14,428.286 608.766,423.762 614.066,419.422 619.015,414.219 623.013,406.77 622.68,405.949 622.343,405.13 622.002,404.312 621.656,403.496 613.563,401.055 606.384,400.876 599.567,401.555 591.683,403.041 590.592,401.038 589.468,399.054 588.311,397.088 587.123,395.141 592.351,389.056 596.347,383.492 599.782,377.186 601.715,368.956 601.181,368.249 600.644,367.545 600.102,366.843 599.557,366.145 591.108,365.882 584.127,367.567 577.718,369.987 570.488,373.462 568.915,371.81 567.316,370.184 565.69,368.585 564.038,367.012 567.513,359.782 569.933,353.373 571.618,346.392 571.355,337.943 570.657,337.398 569.955,336.856 569.251,336.319 568.544,335.785 560.314,337.718 554.008,341.153 548.444,345.149 542.359,350.377 540.412,349.189 538.446,348.032 536.462,346.908 534.459,345.817 535.945,337.933 536.624,331.116 536.445,323.937 534.004,315.844 533.188,315.498 532.37,315.157 531.551,314.82 530.73,314.487 523.281,318.485 518.078,323.434 513.738,328.734 509.214,335.36 507.026,334.715 504.827,334.107 502.62,333.535 500.403,332.999 499.797,324.999 498.689,318.239 496.658,311.351 492.205,304.165 491.328,304.042 490.45,303.924 489.571,303.811 488.692,303.702 482.531,309.491 478.787,315.619 475.966,321.861 473.311,329.432 471.031,329.376 468.75,329.357 466.469,329.376 464.189,329.432 461.534,321.861 458.713,315.619 454.969,309.491 448.808,303.702 447.929,303.811 447.05,303.924 446.172,304.042 445.295,304.165 440.842,311.351 438.811,318.239 437.703,324.999 437.097,332.999 434.88,333.535 432.673,334.107 430.474,334.715 428.286,335.36 423.762,328.734 419.422,323.434 414.219,318.485 406.77,314.487 405.949,314.82 405.13,315.157 404.312,315.498 403.496,315.844 401.055,323.937 400.876,331.116 401.555,337.933 403.041,345.817 401.038,346.908 399.054,348.032 397.088,349.189 395.141,350.377 389.056,345.149 383.492,341.153 377.186,337.718 368.956,335.785 368.249,336.319 367.545,336.856 366.843,337.398 366.145,337.943 365.882,346.392 367.567,353.373 369.987,359.782 373.462,367.012 371.81,368.585 370.184,370.184 368.585,371.81 367.012,373.462 359.782,369.987 353.373,367.567 346.392,365.882 337.943,366.145 337.398,366.843 336.856,367.545 336.319,368.249 335.785,368.956 337.718,377.186 341.153,383.492 345.149,389.056 350.377,395.141 349.189,397.088 348.032,399.054 346.908,401.038 345.817,403.041 337.933,401.555 331.116,400.876 323.937,401.055 315.844,403.496 315.498,404.312 315.157,405.13 314.82,405.949 314.487,406.77 318.485,414.219 323.434,419.422 328.734,423.762 335.36,428.286 334.715,430.474 334.107,432.673 333.535,434.88 332.999,437.097 324.999,437.703 318.239,438.811 311.351,440.842 304.165,445.295 304.042,446.172 303.924,447.05 303.811,447.929 303.702,448.808 309.491,454.969 315.619,458.713 321.861,461.534 329.432,464.189 329.376,466.469 329.357,468.75 329.376,471.031 329.432,473.311 321.861,475.966 315.619,478.787 309.491,482.531 303.702,488.692 303.811,489.571 303.924,490.45 304.042,491.328 304.165,492.205 311.351,496.658 318.239,498.689 324.999,499.797 332.999,500.403 333.535,502.62 334.107,504.827 334.715,507.026 335.36,509.214 328.734,513.738 323.434,518.078 318.485,523.281 314.487,530.73 314.82,531.551 315.157,532.37 315.498,533.188 315.844,534.004 323.937,536.445 331.116,536.624 337.933,535.945 345.817,534.459 346.908,536.462 348.032,538.446 349.189,540.412 350.377,542.359 345.149,548.444 341.153,554.008 337.718,560.314 335.785,568.544 336.319,569.251 336.856,569.955 337.398,570.657 337.943,571.355 346.392,571.618 353.373,569.933 359.782,567.513 367.012,564.038 368.585,565.69 370.184,567.316 371.81,568.915 373.462,570.488 369.987,577.718 367.567,584.127 365.882,591.108 366.145,599.557 366.843,600.102 367.545,600.644 368.249,601.181 368.956,601.715 377.186,599.782 383.492,596.347 389.056,592.351 395.141,587.123 397.088,588.311 399.054,589.468 401.038,590.592 403.041,591.683 401.555,599.567 400.876,606.384 401.055,613.563 403.496,621.656 404.312,622.002 405.13,622.343 405.949,622.68 406.77,623.013 414.219,619.015 419.422,614.066 423.762,608.766 428.286,602.14 430.474,602.785 432.673,603.393 434.88,603.965 437.097,604.501 437.703,612.501 438.811,619.261 440.842,626.149 445.295,633.335 446.172,633.458 447.05,633.576 447.929,633.689 448.808,633.798 454.969,628.009 458.713,621.881 461.534,615.639 464.189,608.068 466.469,608.124 468.75,608.143 471.031,608.124 473.311,608.068 475.966,615.639 478.787,621.881 482.531,628.009 488.692,633.798 489.571,633.689 490.45,633.576 491.328,633.458 492.205,633.335 496.658,626.149 498.689,619.261 499.797,612.501 500.403,604.501 502.62,603.965 504.827,603.393 507.026,602.785 509.214,602.14 513.738,608.766 518.078,614.066 523.281,619.015 530.73,623.013 531.551,622.68 532.37,622.343 533.188,622.002 534.004,621.656 536.445,613.563 536.624,606.384 535.945,599.567 534.459,591.683 536.462,590.592 538.446,589.468 540.412,588.311 542.359,587.123 548.444,592.351 554.008,596.347 560.314,599.782 568.544,601.715 569.251,601.181 569.955,600.644 570.657,600.102 571.355,599.557 571.618,591.108 569.933,584.127 567.513,577.718 564.038,570.488 565.69,568.915 567.316,567.316 568.915,565.69 570.488,564.038 577.718,567.513 584.127,569.933 591.108,571.618 599.557,571.355 600.102,570.657 600.644,569.955 601.181,569.251 601.715,568.544 599.782,560.314 596.347,554.008 592.351,548.444 587.123,542.359 588.311,540.412 589.468,538.446 590.592,536.462 591.683,534.459 599.567,535.945 606.384,536.624 613.563,536.445 621.656,534.004 622.002,533.188 622.343,532.37 622.68,531.551 623.013,530.73 619.015,523.281 614.066,518.078 608.766,513.738 602.14,509.214 602.785,507.026 603.393,504.827 603.965,502.62 604.501,500.403 612.501,499.797 619.261,498.689 626.149,496.658 633.335,492.205 633.458,491.328 633.576,490.45 633.689,489.571 633.798,488.692 628.009,482.531 621.881,478.787 615.639,475.966 608.068,473.311 608.124,471.031 608.143,468.75 608.143,468.75 608.124,466.469 608.068,464.189 615.639,461.534 621.881,458.713 628.009,454.969 633.798,448.808 633.689,447.929 "
     id="polygon31"
     style="fill:#174b63;fill-opacity:1;stroke:#000000;stroke-width:1.5pt;stroke-dasharray:none;stroke-opacity:1" />
  <polygon
     points="830.85,424.705 830.557,424.005 830.26,423.306 822.045,420.75 814.743,420.523 807.968,421.475 800.202,423.386 799.066,421.542 797.885,419.727 796.66,417.941 795.391,416.186 800.129,409.742 803.6,403.847 806.185,397.014 806.967,388.446 806.436,387.904 805.901,387.366 805.362,386.831 804.82,386.299 796.253,387.081 789.419,389.666 783.525,393.138 777.081,397.875 775.325,396.607 773.54,395.382 771.724,394.201 769.88,393.065 771.791,385.298 772.743,378.524 772.516,371.221 769.96,363.006 769.262,362.709 768.561,362.416 767.859,362.128 767.155,361.844 759.539,365.846 754.214,370.849 750.097,376.312 745.957,383.155 743.85,382.655 741.731,382.206 739.602,381.81 737.464,381.466 736.257,373.559 734.544,366.936 731.54,360.276 726.034,353.665 725.275,353.658 724.516,353.655 723.757,353.658 722.998,353.665 717.493,360.276 714.489,366.936 712.776,373.559 711.569,381.466 709.431,381.81 707.302,382.206 705.183,382.655 703.076,383.155 698.935,376.312 694.818,370.849 689.494,365.846 681.878,361.844 681.174,362.128 680.471,362.416 679.771,362.709 679.073,363.006 676.517,371.221 676.289,378.524 677.241,385.298 679.152,393.065 677.309,394.201 675.493,395.382 673.707,396.607 671.952,397.875 665.508,393.138 659.614,389.666 652.78,387.081 644.213,386.299 643.671,386.831 643.132,387.366 642.597,387.904 642.066,388.446 642.848,397.014 645.432,403.847 648.904,409.742 653.642,416.186 652.373,417.941 651.148,419.727 649.967,421.542 648.831,423.386 641.064,421.475 634.29,420.523 626.988,420.75 618.773,423.306 618.475,424.005 618.183,424.705 617.894,425.407 617.611,426.111 621.612,433.728 626.615,439.052 632.078,443.169 638.921,447.31 638.421,449.417 637.972,451.535 637.576,453.664 637.232,455.803 629.325,457.009 622.702,458.722 616.043,461.727 609.432,467.232 609.424,467.991 609.422,468.75 609.424,469.509 609.432,470.268 616.043,475.773 622.702,478.778 629.325,480.491 637.232,481.697 637.576,483.836 637.972,485.965 638.421,488.083 638.921,490.19 632.078,494.331 626.615,498.448 621.612,503.772 617.611,511.389 617.894,512.093 618.183,512.795 618.475,513.495 618.773,514.194 626.988,516.75 634.29,516.977 641.064,516.025 648.831,514.114 649.967,515.958 651.148,517.773 652.373,519.559 653.642,521.314 648.904,527.758 645.432,533.653 642.848,540.486 642.066,549.054 642.597,549.596 643.132,550.134 643.671,550.669 644.213,551.201 652.78,550.419 659.614,547.834 665.508,544.362 671.952,539.625 673.707,540.893 675.493,542.118 677.309,543.299 679.152,544.435 677.241,552.202 676.289,558.976 676.517,566.279 679.073,574.494 679.771,574.791 680.471,575.084 681.174,575.372 681.878,575.656 689.494,571.654 694.818,566.651 698.935,561.188 703.076,554.345 705.183,554.845 707.302,555.294 709.431,555.69 711.569,556.034 712.776,563.941 714.489,570.564 717.493,577.224 722.998,583.835 723.757,583.842 724.516,583.845 725.275,583.842 726.034,583.835 731.54,577.224 734.544,570.564 736.257,563.941 737.464,556.034 739.602,555.69 741.731,555.294 743.85,554.845 745.957,554.345 750.097,561.188 754.214,566.651 759.539,571.654 767.155,575.656 767.859,575.372 768.561,575.084 769.262,574.791 769.96,574.494 772.516,566.279 772.743,558.976 771.791,552.202 769.88,544.435 771.724,543.299 773.54,542.118 775.325,540.893 777.081,539.625 783.525,544.362 789.419,547.834 796.253,550.419 804.82,551.201 805.362,550.669 805.901,550.134 806.436,549.596 806.967,549.054 806.185,540.486 803.6,533.653 800.129,527.758 795.391,521.314 796.66,519.559 797.885,517.773 799.066,515.958 800.202,514.114 807.968,516.025 814.743,516.977 822.045,516.75 830.26,514.194 830.557,513.495 830.85,512.795 831.138,512.093 831.422,511.389 827.421,503.772 822.418,498.448 816.954,494.331 810.111,490.19 810.612,488.083 811.06,485.965 811.457,483.836 811.801,481.697 819.707,480.491 826.33,478.778 832.99,475.773 839.601,470.268 839.609,469.509 839.611,468.75 839.609,467.991 839.601,467.232 832.99,461.727 826.33,458.722 819.707,457.009 811.801,455.803 811.457,453.664 811.06,451.535 811.06,451.535 810.612,449.417 810.111,447.31 816.954,443.169 822.418,439.052 827.421,433.728 831.422,426.111 831.138,425.407 "
     id="polygon34"
     style="fill:#6d94a3;fill-opacity:1;stroke:#000000;stroke-width:1.5pt;stroke-dasharray:none;stroke-opacity:1" />
  <polygon
     points="575.084,168.939 574.791,168.238 574.494,167.54 566.279,164.984 558.976,164.757 552.202,165.709 544.435,167.62 543.299,165.776 542.118,163.96 540.893,162.175 539.625,160.419 544.362,153.975 547.834,148.081 550.419,141.247 551.201,132.68 550.669,132.138 550.134,131.599 549.596,131.064 549.054,130.533 540.486,131.315 533.653,133.9 527.758,137.371 521.314,142.109 519.559,140.84 517.773,139.615 515.958,138.434 514.114,137.298 516.025,129.532 516.977,122.757 516.75,115.455 514.194,107.24 513.495,106.943 512.795,106.65 512.093,106.362 511.389,106.078 503.772,110.079 498.448,115.082 494.331,120.546 490.19,127.389 488.083,126.888 485.965,126.44 483.836,126.043 481.697,125.699 480.491,117.793 478.778,111.17 475.773,104.51 470.268,97.899 469.509,97.891 468.75,97.889 467.991,97.891 467.232,97.899 461.727,104.51 458.722,111.17 457.009,117.793 455.803,125.699 453.664,126.043 451.535,126.44 449.417,126.888 447.31,127.389 443.169,120.546 439.052,115.082 433.728,110.079 426.111,106.078 425.407,106.362 424.705,106.65 424.005,106.943 423.306,107.24 420.75,115.455 420.523,122.757 421.475,129.532 423.386,137.298 421.542,138.434 419.727,139.615 417.941,140.84 416.186,142.109 409.742,137.371 403.847,133.9 397.014,131.315 388.446,130.533 387.904,131.064 387.366,131.599 386.831,132.138 386.299,132.68 387.081,141.247 389.666,148.081 393.138,153.975 397.875,160.419 396.607,162.175 395.382,163.96 394.201,165.776 393.065,167.62 385.298,165.709 378.524,164.757 371.221,164.984 363.006,167.54 362.709,168.238 362.416,168.939 362.128,169.641 361.844,170.345 365.846,177.961 370.849,183.286 376.312,187.403 383.155,191.543 382.655,193.65 382.206,195.769 381.81,197.898 381.466,200.036 373.559,201.243 366.936,202.956 360.276,205.96 353.665,211.466 353.658,212.225 353.655,212.984 353.658,213.743 353.665,214.502 360.276,220.007 366.936,223.011 373.559,224.724 381.466,225.931 381.81,228.069 382.206,230.198 382.655,232.317 383.155,234.424 376.312,238.565 370.849,242.682 365.846,248.006 361.844,255.622 362.128,256.326 362.416,257.029 362.709,257.729 363.006,258.427 371.221,260.983 378.524,261.211 385.298,260.259 393.065,258.348 394.201,260.191 395.382,262.007 396.607,263.793 397.875,265.548 393.138,271.992 389.666,277.886 387.081,284.72 386.299,293.287 386.831,293.829 387.366,294.368 387.904,294.903 388.446,295.434 397.014,294.652 403.847,292.068 409.742,288.596 416.186,283.858 417.941,285.127 419.727,286.352 421.542,287.533 423.386,288.669 421.475,296.436 420.523,303.21 420.75,310.512 423.306,318.727 424.005,319.025 424.705,319.317 425.407,319.606 426.111,319.889 433.728,315.888 439.052,310.885 443.169,305.422 447.31,298.579 449.417,299.079 451.535,299.528 453.664,299.924 455.803,300.268 457.009,308.175 458.722,314.798 461.727,321.457 467.232,328.068 467.991,328.076 468.75,328.078 469.509,328.076 470.268,328.068 475.773,321.457 478.778,314.798 480.491,308.175 481.697,300.268 483.836,299.924 485.965,299.528 488.083,299.079 490.19,298.579 494.331,305.422 498.448,310.885 503.772,315.888 511.389,319.889 512.093,319.606 512.795,319.317 513.495,319.025 514.194,318.727 516.75,310.512 516.977,303.21 516.025,296.436 514.114,288.669 515.958,287.533 517.773,286.352 519.559,285.127 521.314,283.858 527.758,288.596 533.653,292.068 540.486,294.652 549.054,295.434 549.596,294.903 550.134,294.368 550.669,293.829 551.201,293.287 550.419,284.72 547.834,277.886 544.362,271.992 539.625,265.548 540.893,263.793 542.118,262.007 543.299,260.191 544.435,258.348 552.202,260.259 558.976,261.211 566.279,260.983 574.494,258.427 574.791,257.729 575.084,257.029 575.372,256.326 575.656,255.622 571.654,248.006 566.651,242.682 561.188,238.565 554.345,234.424 554.845,232.317 555.294,230.198 555.69,228.069 556.034,225.931 563.941,224.724 570.564,223.011 577.224,220.007 583.835,214.502 583.842,213.743 583.845,212.984 583.842,212.225 583.835,211.466 577.224,205.96 570.564,202.956 563.941,201.243 556.034,200.036 555.69,197.898 555.294,195.769 555.294,195.769 554.845,193.65 554.345,191.543 561.188,187.403 566.651,183.286 571.654,177.961 575.656,170.345 575.372,169.641 "
     id="polygon37"
     style="fill:#6d94a3;fill-opacity:1;stroke:#000000;stroke-width:1.5pt;stroke-dasharray:none;stroke-opacity:1" />
  <polygon
     points="319.317,424.705 319.025,424.005 318.727,423.306 310.512,420.75 303.21,420.523 296.436,421.475 288.669,423.386 287.533,421.542 286.352,419.727 285.127,417.941 283.858,416.186 288.596,409.742 292.068,403.847 294.652,397.014 295.434,388.446 294.903,387.904 294.368,387.366 293.829,386.831 293.287,386.299 284.72,387.081 277.886,389.666 271.992,393.138 265.548,397.875 263.793,396.607 262.007,395.382 260.191,394.201 258.348,393.065 260.259,385.298 261.211,378.524 260.983,371.221 258.427,363.006 257.729,362.709 257.029,362.416 256.326,362.128 255.622,361.844 248.006,365.846 242.682,370.849 238.565,376.312 234.424,383.155 232.317,382.655 230.198,382.206 228.069,381.81 225.931,381.466 224.724,373.559 223.011,366.936 220.007,360.276 214.502,353.665 213.743,353.658 212.984,353.655 212.225,353.658 211.466,353.665 205.96,360.276 202.956,366.936 201.243,373.559 200.036,381.466 197.898,381.81 195.769,382.206 193.65,382.655 191.543,383.155 187.403,376.312 183.286,370.849 177.961,365.846 170.345,361.844 169.641,362.128 168.939,362.416 168.238,362.709 167.54,363.006 164.984,371.221 164.757,378.524 165.709,385.298 167.62,393.065 165.776,394.201 163.96,395.382 162.175,396.607 160.419,397.875 153.975,393.138 148.081,389.666 141.247,387.081 132.68,386.299 132.138,386.831 131.599,387.366 131.064,387.904 130.533,388.446 131.315,397.014 133.9,403.847 137.371,409.742 142.109,416.186 140.84,417.941 139.615,419.727 138.434,421.542 137.298,423.386 129.532,421.475 122.757,420.523 115.455,420.75 107.24,423.306 106.943,424.005 106.65,424.705 106.362,425.407 106.078,426.111 110.079,433.728 115.082,439.052 120.546,443.169 127.389,447.31 126.888,449.417 126.44,451.535 126.043,453.664 125.699,455.803 117.793,457.009 111.17,458.722 104.51,461.727 97.899,467.232 97.891,467.991 97.889,468.75 97.891,469.509 97.899,470.268 104.51,475.773 111.17,478.778 117.793,480.491 125.699,481.697 126.043,483.836 126.44,485.965 126.888,488.083 127.389,490.19 120.546,494.331 115.082,498.448 110.079,503.772 106.078,511.389 106.362,512.093 106.65,512.795 106.943,513.495 107.24,514.194 115.455,516.75 122.757,516.977 129.532,516.025 137.298,514.114 138.434,515.958 139.615,517.773 140.84,519.559 142.109,521.314 137.371,527.758 133.9,533.653 131.315,540.486 130.533,549.054 131.064,549.596 131.599,550.134 132.138,550.669 132.68,551.201 141.247,550.419 148.081,547.834 153.975,544.362 160.419,539.625 162.175,540.893 163.96,542.118 165.776,543.299 167.62,544.435 165.709,552.202 164.757,558.976 164.984,566.279 167.54,574.494 168.238,574.791 168.939,575.084 169.641,575.372 170.345,575.656 177.961,571.654 183.286,566.651 187.403,561.188 191.543,554.345 193.65,554.845 195.769,555.294 197.898,555.69 200.036,556.034 201.243,563.941 202.956,570.564 205.96,577.224 211.466,583.835 212.225,583.842 212.984,583.845 213.743,583.842 214.502,583.835 220.007,577.224 223.011,570.564 224.724,563.941 225.931,556.034 228.069,555.69 230.198,555.294 232.317,554.845 234.424,554.345 238.565,561.188 242.682,566.651 248.006,571.654 255.622,575.656 256.326,575.372 257.029,575.084 257.729,574.791 258.427,574.494 260.983,566.279 261.211,558.976 260.259,552.202 258.348,544.435 260.191,543.299 262.007,542.118 263.793,540.893 265.548,539.625 271.992,544.362 277.886,547.834 284.72,550.419 293.287,551.201 293.829,550.669 294.368,550.134 294.903,549.596 295.434,549.054 294.652,540.486 292.068,533.653 288.596,527.758 283.858,521.314 285.127,519.559 286.352,517.773 287.533,515.958 288.669,514.114 296.436,516.025 303.21,516.977 310.512,516.75 318.727,514.194 319.025,513.495 319.317,512.795 319.606,512.093 319.889,511.389 315.888,503.772 310.885,498.448 305.422,494.331 298.579,490.19 299.079,488.083 299.528,485.965 299.924,483.836 300.268,481.697 308.175,480.491 314.798,478.778 321.457,475.773 328.068,470.268 328.076,469.509 328.078,468.75 328.076,467.991 328.068,467.232 321.457,461.727 314.798,458.722 308.175,457.009 300.268,455.803 299.924,453.664 299.528,451.535 299.528,451.535 299.079,449.417 298.579,447.31 305.422,443.169 310.885,439.052 315.888,433.728 319.889,426.111 319.606,425.407 "
     id="polygon40"
     style="fill:#6d94a3;fill-opacity:1;stroke:#000000;stroke-width:1.5pt;stroke-dasharray:none;stroke-opacity:1" />
  <polygon
     points="575.084,680.471 574.791,679.771 574.494,679.073 566.279,676.517 558.976,676.289 552.202,677.241 544.435,679.152 543.299,677.309 542.118,675.493 540.893,673.707 539.625,671.952 544.362,665.508 547.834,659.614 550.419,652.78 551.201,644.213 550.669,643.671 550.134,643.132 549.596,642.597 549.054,642.066 540.486,642.848 533.653,645.432 527.758,648.904 521.314,653.642 519.559,652.373 517.773,651.148 515.958,649.967 514.114,648.831 516.025,641.064 516.977,634.29 516.75,626.988 514.194,618.773 513.495,618.475 512.795,618.183 512.093,617.894 511.389,617.611 503.772,621.612 498.448,626.615 494.331,632.078 490.19,638.921 488.083,638.421 485.965,637.972 483.836,637.576 481.697,637.232 480.491,629.325 478.778,622.702 475.773,616.043 470.268,609.432 469.509,609.424 468.75,609.422 467.991,609.424 467.232,609.432 461.727,616.043 458.722,622.702 457.009,629.325 455.803,637.232 453.664,637.576 451.535,637.972 449.417,638.421 447.31,638.921 443.169,632.078 439.052,626.615 433.728,621.612 426.111,617.611 425.407,617.894 424.705,618.183 424.005,618.475 423.306,618.773 420.75,626.988 420.523,634.29 421.475,641.064 423.386,648.831 421.542,649.967 419.727,651.148 417.941,652.373 416.186,653.642 409.742,648.904 403.847,645.432 397.014,642.848 388.446,642.066 387.904,642.597 387.366,643.132 386.831,643.671 386.299,644.213 387.081,652.78 389.666,659.614 393.138,665.508 397.875,671.952 396.607,673.707 395.382,675.493 394.201,677.309 393.065,679.152 385.298,677.241 378.524,676.289 371.221,676.517 363.006,679.073 362.709,679.771 362.416,680.471 362.128,681.174 361.844,681.878 365.846,689.494 370.849,694.818 376.312,698.935 383.155,703.076 382.655,705.183 382.206,707.302 381.81,709.431 381.466,711.569 373.559,712.776 366.936,714.489 360.276,717.493 353.665,722.998 353.658,723.757 353.655,724.516 353.658,725.275 353.665,726.034 360.276,731.54 366.936,734.544 373.559,736.257 381.466,737.464 381.81,739.602 382.206,741.731 382.655,743.85 383.155,745.957 376.312,750.097 370.849,754.214 365.846,759.539 361.844,767.155 362.128,767.859 362.416,768.561 362.709,769.262 363.006,769.96 371.221,772.516 378.524,772.743 385.298,771.791 393.065,769.88 394.201,771.724 395.382,773.54 396.607,775.325 397.875,777.081 393.138,783.525 389.666,789.419 387.081,796.253 386.299,804.82 386.831,805.362 387.366,805.901 387.904,806.436 388.446,806.967 397.014,806.185 403.847,803.6 409.742,800.129 416.186,795.391 417.941,796.66 419.727,797.885 421.542,799.066 423.386,800.202 421.475,807.968 420.523,814.743 420.75,822.045 423.306,830.26 424.005,830.557 424.705,830.85 425.407,831.138 426.111,831.422 433.728,827.421 439.052,822.418 443.169,816.954 447.31,810.111 449.417,810.612 451.535,811.06 453.664,811.457 455.803,811.801 457.009,819.707 458.722,826.33 461.727,832.99 467.232,839.601 467.991,839.609 468.75,839.611 469.509,839.609 470.268,839.601 475.773,832.99 478.778,826.33 480.491,819.707 481.697,811.801 483.836,811.457 485.965,811.06 488.083,810.612 490.19,810.111 494.331,816.954 498.448,822.418 503.772,827.421 511.389,831.422 512.093,831.138 512.795,830.85 513.495,830.557 514.194,830.26 516.75,822.045 516.977,814.743 516.025,807.968 514.114,800.202 515.958,799.066 517.773,797.885 519.559,796.66 521.314,795.391 527.758,800.129 533.653,803.6 540.486,806.185 549.054,806.967 549.596,806.436 550.134,805.901 550.669,805.362 551.201,804.82 550.419,796.253 547.834,789.419 544.362,783.525 539.625,777.081 540.893,775.325 542.118,773.54 543.299,771.724 544.435,769.88 552.202,771.791 558.976,772.743 566.279,772.516 574.494,769.96 574.791,769.262 575.084,768.561 575.372,767.859 575.656,767.155 571.654,759.539 566.651,754.214 561.188,750.097 554.345,745.957 554.845,743.85 555.294,741.731 555.69,739.602 556.034,737.464 563.941,736.257 570.564,734.544 577.224,731.54 583.835,726.034 583.842,725.275 583.845,724.516 583.842,723.757 583.835,722.998 577.224,717.493 570.564,714.489 563.941,712.776 556.034,711.569 555.69,709.431 555.294,707.302 555.294,707.302 554.845,705.183 554.345,703.076 561.188,698.935 566.651,694.818 571.654,689.494 575.656,681.878 575.372,681.174 "
     id="polygon43"
     style="fill:#6d94a3;fill-opacity:1;stroke:#000000;stroke-width:1.5pt;stroke-dasharray:none;stroke-opacity:1" />
  <polygon
     points="718.278,468.75 761.054,468.75 675.44,675.44 468.75,761.054 262.06,675.44 176.446,468.75 262.06,262.06 468.75,176.446 675.44,262.06 761.054,468.75 718.278,468.75 645.193,292.307 468.75,219.222 292.307,292.307 219.222,468.75 292.307,645.193 468.75,718.278 645.193,645.193 "
     id="polygon46"
     style="fill:#147d78;fill-opacity:1;stroke:#000000;stroke-width:1.5pt;stroke-dasharray:none;stroke-opacity:1" />
  <polygon
     points="774.045,455.96 773.616,454.402 773.138,452.858 772.612,451.331 772.038,449.82 771.417,448.329 770.748,446.858 770.034,445.408 769.274,443.982 768.469,442.581 767.621,441.206 766.729,439.858 765.796,438.539 764.821,437.251 763.806,435.993 762.752,434.769 761.659,433.578 760.53,432.422 759.364,431.303 758.164,430.221 756.931,429.178 755.665,428.174 754.368,427.21 753.041,426.288 751.685,425.408 750.303,424.572 748.895,423.779 747.462,423.032 746.007,422.33 744.53,421.674 743.033,421.066 741.518,420.505 739.985,419.992 738.438,419.527 736.876,419.112 735.302,418.747 733.717,418.431 732.123,418.166 730.522,417.95 728.915,417.786 727.303,417.673 725.688,417.61 724.072,417.599 722.457,417.638 720.844,417.729 719.234,417.87 717.63,418.062 716.032,418.305 714.443,418.598 712.864,418.942 711.297,419.334 709.743,419.777 708.203,420.268 706.68,420.807 705.175,421.394 703.689,422.029 702.223,422.71 700.78,423.437 699.361,424.209 697.967,425.026 696.599,425.887 695.259,426.79 693.948,427.735 692.668,428.721 691.42,429.746 690.204,430.811 689.023,431.914 687.878,433.053 686.768,434.228 685.697,435.438 684.664,436.681 683.671,437.955 682.719,439.261 681.808,440.596 680.94,441.958 680.116,443.348 679.336,444.763 678.601,446.202 677.911,447.664 677.269,449.146 676.673,450.648 676.125,452.168 675.626,453.705 675.175,455.257 674.773,456.822 674.421,458.399 674.119,459.986 673.868,461.582 673.667,463.186 673.516,464.795 673.417,466.407 673.368,468.022 673.371,469.638 673.424,471.253 673.529,472.866 673.684,474.474 673.891,476.077 674.147,477.672 674.454,479.258 674.811,480.834 675.217,482.398 675.673,483.949 676.178,485.484 676.73,487.002 677.33,488.502 677.978,489.983 678.672,491.442 679.411,492.879 680.196,494.291 681.025,495.678 681.897,497.039 682.812,498.37 683.768,499.673 684.765,500.945 685.802,502.184 686.877,503.39 687.99,504.562 689.139,505.697 690.324,506.796 691.542,507.857 692.794,508.879 694.077,509.861 695.391,510.802 696.734,511.701 698.104,512.557 699.501,513.369 700.923,514.137 702.368,514.86 703.835,515.536 705.323,516.166 706.831,516.749 708.355,517.283 709.896,517.77 711.452,518.207 713.021,518.595 714.601,518.933 716.191,519.221 717.789,519.459 719.394,519.646 721.004,519.783 722.617,519.868 724.233,519.902 725.849,519.886 727.463,519.818 729.075,519.7 730.682,519.53 732.282,519.31 733.875,519.04 735.459,518.719 737.032,518.349 738.592,517.929 740.138,517.459 741.669,516.942 743.183,516.376 744.678,515.763 746.152,515.102 747.606,514.396 749.036,513.644 750.441,512.847 751.821,512.006 753.174,511.122 754.498,510.196 755.792,509.228 757.055,508.22 758.285,507.173 759.482,506.087 760.644,504.964 761.77,503.805 762.858,502.611 763.909,501.383 764.92,500.123 765.89,498.831 766.82,497.509 767.707,496.159 768.551,494.781 769.351,493.377 770.107,491.949 770.817,490.497 771.48,489.024 772.097,487.53 772.667,486.018 773.188,484.489 773.661,482.944 774.085,481.384 774.459,479.813 774.784,478.23 775.058,476.637 775.282,475.037 775.455,473.43 775.577,471.819 775.649,470.205 775.669,468.589 775.67,468.75 775.644,467.134 775.568,465.52 775.44,463.91 775.262,462.304 775.033,460.704 774.754,459.112 774.424,457.531 "
     id="polygon49"
     style="fill:#147d78;fill-opacity:1;stroke:#000000;stroke-width:1.5pt;stroke-dasharray:none;stroke-opacity:1" />
  <polygon
     points="754.233,461.076 753.976,460.141 753.69,459.215 753.374,458.298 753.029,457.392 752.656,456.497 752.255,455.615 751.827,454.745 751.371,453.889 750.888,453.049 750.379,452.224 749.844,451.415 749.284,450.624 748.699,449.85 748.09,449.096 747.458,448.361 746.802,447.647 746.124,446.953 745.425,446.282 744.705,445.633 743.965,445.007 743.205,444.404 742.427,443.826 741.631,443.273 740.818,442.745 739.988,442.243 739.143,441.768 738.284,441.319 737.411,440.898 736.524,440.505 735.626,440.139 734.717,439.803 733.798,439.495 732.869,439.216 731.932,438.967 730.988,438.748 730.037,438.559 729.081,438.399 728.12,438.27 727.155,438.172 726.188,438.104 725.219,438.066 724.25,438.059 723.281,438.083 722.313,438.137 721.347,438.222 720.384,438.337 719.426,438.483 718.472,438.659 717.525,438.865 716.585,439.101 715.652,439.366 714.728,439.661 713.815,439.984 712.911,440.337 712.02,440.717 711.141,441.126 710.275,441.562 709.423,442.026 708.587,442.516 707.766,443.032 706.962,443.574 706.176,444.141 705.407,444.732 704.658,445.348 703.929,445.987 703.221,446.648 702.533,447.332 701.868,448.037 701.225,448.763 700.605,449.508 700.009,450.273 699.438,451.056 698.891,451.857 698.371,452.675 697.876,453.509 697.408,454.358 696.967,455.221 696.553,456.098 696.168,456.988 695.81,457.889 695.482,458.801 695.182,459.723 694.911,460.654 694.671,461.593 694.459,462.539 694.278,463.492 694.127,464.449 694.007,465.411 693.916,466.377 693.857,467.344 693.828,468.313 693.829,469.283 693.861,470.252 693.924,471.219 694.017,472.184 694.141,473.146 694.295,474.103 694.479,475.055 694.693,476.001 694.937,476.939 695.21,477.869 695.513,478.79 695.845,479.701 696.205,480.601 696.593,481.49 697.01,482.365 697.453,483.227 697.924,484.075 698.421,484.907 698.945,485.723 699.494,486.522 700.067,487.304 700.666,488.067 701.288,488.81 701.933,489.534 702.6,490.237 703.29,490.918 704.001,491.578 704.732,492.214 705.483,492.828 706.253,493.417 707.041,493.981 707.847,494.521 708.669,495.034 709.507,495.522 710.36,495.982 711.227,496.416 712.108,496.822 713.001,497.2 713.905,497.549 714.82,497.87 715.744,498.162 716.678,498.424 717.619,498.657 718.567,498.86 719.521,499.033 720.48,499.175 721.443,499.288 722.409,499.37 723.377,499.421 724.346,499.441 725.316,499.432 726.284,499.391 727.251,499.32 728.215,499.218 729.176,499.086 730.132,498.924 731.082,498.731 732.026,498.509 732.962,498.257 733.89,497.976 734.808,497.665 735.716,497.326 736.613,496.958 737.498,496.561 738.37,496.138 739.228,495.686 740.071,495.208 740.899,494.704 741.711,494.173 742.505,493.618 743.282,493.037 744.039,492.432 744.778,491.804 745.496,491.152 746.193,490.479 746.868,489.783 747.521,489.067 748.152,488.33 748.758,487.574 749.341,486.799 749.898,486.005 750.431,485.195 750.937,484.368 751.417,483.526 751.871,482.669 752.297,481.798 752.695,480.914 753.065,480.018 753.407,479.111 753.719,478.193 754.003,477.266 754.257,476.331 754.482,475.388 754.677,474.438 754.841,473.482 754.976,472.522 755.08,471.558 755.153,470.592 755.196,469.623 755.208,468.654 755.208,468.75 755.193,467.781 755.147,466.812 755.071,465.846 754.964,464.882 754.826,463.922 754.659,462.967 754.461,462.018 "
     id="polygon52"
     style="fill:#6d94a3;fill-opacity:1;stroke:#000000;stroke-width:1.5pt;stroke-dasharray:none;stroke-opacity:1" />
  <polygon
     points="518.278,200.194 517.85,198.636 517.372,197.092 516.846,195.564 516.272,194.054 515.65,192.562 514.982,191.091 514.267,189.642 513.507,188.216 512.703,186.815 511.854,185.439 510.963,184.092 510.029,182.773 509.054,181.484 508.039,180.227 506.985,179.002 505.893,177.812 504.763,176.656 503.598,175.537 502.398,174.455 501.164,173.411 499.898,172.407 498.601,171.444 497.274,170.522 495.919,169.642 494.536,168.805 493.128,168.013 491.696,167.265 490.24,166.564 488.763,165.908 487.267,165.299 485.751,164.738 484.219,164.225 482.671,163.761 481.11,163.346 479.536,162.98 477.951,162.665 476.357,162.399 474.756,162.184 473.148,162.02 471.536,161.906 469.922,161.844 468.306,161.832 466.69,161.872 465.077,161.962 463.468,162.104 461.863,162.296 460.266,162.539 458.677,162.832 457.098,163.175 455.53,163.568 453.976,164.01 452.437,164.501 450.914,165.041 449.408,165.628 447.922,166.263 446.457,166.944 445.014,167.671 443.595,168.443 442.2,169.26 440.833,170.12 439.493,171.023 438.182,171.968 436.902,172.954 435.653,173.98 434.438,175.045 433.257,176.148 432.111,177.287 431.002,178.462 429.93,179.671 428.898,180.914 427.905,182.189 426.952,183.494 426.042,184.829 425.174,186.192 424.35,187.582 423.569,188.997 422.834,190.436 422.145,191.897 421.502,193.38 420.907,194.882 420.359,196.402 419.859,197.939 419.408,199.49 419.007,201.055 418.655,202.633 418.353,204.22 418.101,205.816 417.9,207.419 417.75,209.028 417.65,210.641 417.602,212.256 417.604,213.872 417.658,215.487 417.763,217.099 417.918,218.708 418.124,220.31 418.381,221.906 418.688,223.492 419.045,225.068 419.451,226.632 419.907,228.182 420.411,229.717 420.964,231.236 421.564,232.736 422.212,234.216 422.905,235.676 423.645,237.112 424.43,238.525 425.258,239.912 426.131,241.272 427.045,242.604 428.002,243.907 428.999,245.178 430.035,246.418 431.111,247.624 432.223,248.795 433.373,249.931 434.557,251.03 435.776,252.091 437.028,253.113 438.311,254.095 439.625,255.036 440.967,255.935 442.338,256.791 443.735,257.603 445.156,258.371 446.602,259.093 448.069,259.77 449.557,260.4 451.064,260.982 452.589,261.517 454.13,262.003 455.686,262.44 457.254,262.828 458.834,263.167 460.424,263.455 462.022,263.693 463.627,263.88 465.237,264.016 466.851,264.102 468.467,264.136 470.082,264.12 471.697,264.052 473.308,263.933 474.915,263.764 476.516,263.544 478.109,263.273 479.693,262.953 481.265,262.582 482.826,262.162 484.372,261.693 485.903,261.175 487.416,260.61 488.911,259.996 490.386,259.336 491.839,258.63 493.269,257.877 494.675,257.081 496.055,256.24 497.407,255.356 498.731,254.43 500.026,253.462 501.288,252.454 502.519,251.407 503.716,250.321 504.877,249.198 506.003,248.039 507.092,246.845 508.142,245.617 509.153,244.356 510.124,243.064 511.053,241.743 511.941,240.392 512.785,239.014 513.585,237.611 514.34,236.182 515.05,234.731 515.714,233.258 516.331,231.764 516.9,230.252 517.422,228.722 517.895,227.177 518.318,225.618 518.693,224.046 519.017,222.463 519.292,220.871 519.515,219.271 519.689,217.664 519.811,216.053 519.883,214.439 519.903,212.823 519.903,212.984 519.878,211.368 519.801,209.754 519.674,208.143 519.495,206.537 519.267,204.938 518.987,203.346 518.658,201.764 "
     id="polygon55"
     style="fill:#147d78;fill-opacity:1;stroke:#000000;stroke-width:1.5pt;stroke-dasharray:none;stroke-opacity:1" />
  <polygon
     points="498.467,205.31 498.21,204.375 497.923,203.449 497.608,202.532 497.263,201.626 496.89,200.731 496.489,199.848 496.06,198.979 495.604,198.123 495.122,197.282 494.613,196.457 494.078,195.649 493.518,194.857 492.933,194.084 492.324,193.33 491.691,192.595 491.036,191.88 490.358,191.187 489.659,190.516 488.939,189.866 488.199,189.24 487.439,188.638 486.661,188.06 485.865,187.506 485.051,186.979 484.222,186.477 483.377,186.001 482.517,185.553 481.644,185.132 480.758,184.738 479.86,184.373 478.951,184.036 478.031,183.729 477.103,183.45 476.166,183.201 475.221,182.982 474.271,182.792 473.314,182.633 472.353,182.504 471.389,182.405 470.422,182.337 469.453,182.3 468.484,182.293 467.514,182.317 466.546,182.371 465.581,182.456 464.618,182.571 463.659,182.717 462.706,182.893 461.759,183.099 460.818,183.334 459.886,183.6 458.962,183.894 458.048,184.218 457.145,184.57 456.253,184.951 455.374,185.36 454.508,185.796 453.657,186.259 452.82,186.749 452,187.266 451.196,187.807 450.409,188.374 449.641,188.966 448.892,189.582 448.163,190.22 447.454,190.882 446.767,191.566 446.101,192.271 445.458,192.996 444.839,193.742 444.243,194.507 443.671,195.29 443.125,196.091 442.604,196.909 442.11,197.743 441.642,198.592 441.201,199.455 440.787,200.332 440.401,201.221 440.044,202.123 439.715,203.035 439.416,203.957 439.145,204.888 438.904,205.827 438.693,206.773 438.512,207.725 438.361,208.683 438.24,209.645 438.15,210.61 438.09,211.578 438.061,212.547 438.063,213.517 438.095,214.486 438.158,215.453 438.251,216.418 438.374,217.38 438.528,218.337 438.713,219.289 438.927,220.234 439.171,221.173 439.444,222.103 439.747,223.024 440.078,223.935 440.438,224.835 440.827,225.723 441.243,226.599 441.687,227.461 442.158,228.308 442.655,229.141 443.178,229.957 443.727,230.756 444.301,231.537 444.899,232.3 445.521,233.044 446.166,233.768 446.834,234.471 447.524,235.152 448.234,235.811 448.966,236.448 449.717,237.061 450.487,237.65 451.275,238.215 452.08,238.754 452.903,239.268 453.741,239.755 454.594,240.216 455.461,240.649 456.341,241.055 457.234,241.433 458.139,241.783 459.053,242.104 459.978,242.395 460.911,242.658 461.853,242.891 462.801,243.093 463.755,243.266 464.713,243.409 465.676,243.521 466.642,243.603 467.611,243.654 468.58,243.675 469.549,243.665 470.518,243.625 471.485,243.553 472.449,243.452 473.41,243.32 474.365,243.158 475.316,242.965 476.259,242.743 477.195,242.491 478.123,242.209 479.042,241.899 479.95,241.559 480.847,241.191 481.732,240.795 482.604,240.371 483.462,239.92 484.305,239.442 485.133,238.937 485.944,238.407 486.739,237.851 487.515,237.271 488.273,236.666 489.011,236.037 489.729,235.386 490.426,234.712 491.102,234.017 491.755,233.3 492.385,232.563 492.992,231.807 493.574,231.032 494.132,230.239 494.664,229.429 495.171,228.602 495.651,227.76 496.104,226.903 496.53,226.032 496.928,225.148 497.299,224.252 497.64,223.345 497.953,222.427 498.237,221.5 498.491,220.564 498.716,219.621 498.91,218.671 499.075,217.716 499.209,216.756 499.313,215.792 499.387,214.825 499.43,213.857 499.442,212.887 499.442,212.984 499.427,212.014 499.381,211.046 499.304,210.079 499.197,209.116 499.06,208.156 498.892,207.201 498.695,206.252 "
     id="polygon58"
     style="fill:#6d94a3;fill-opacity:1;stroke:#000000;stroke-width:1.5pt;stroke-dasharray:none;stroke-opacity:1" />
  <polygon
     points="262.512,455.96 262.083,454.402 261.606,452.858 261.08,451.331 260.505,449.82 259.884,448.329 259.215,446.858 258.501,445.408 257.741,443.982 256.936,442.581 256.088,441.206 255.196,439.858 254.263,438.539 253.288,437.251 252.273,435.993 251.219,434.769 250.126,433.578 248.997,432.422 247.832,431.303 246.632,430.221 245.398,429.178 244.132,428.174 242.835,427.21 241.508,426.288 240.152,425.408 238.77,424.572 237.362,423.779 235.929,423.032 234.474,422.33 232.997,421.674 231.5,421.066 229.985,420.505 228.453,419.992 226.905,419.527 225.343,419.112 223.769,418.747 222.185,418.431 220.591,418.166 218.989,417.95 217.382,417.786 215.77,417.673 214.155,417.61 212.539,417.599 210.924,417.638 209.311,417.729 207.701,417.87 206.097,418.062 204.499,418.305 202.91,418.598 201.331,418.942 199.764,419.334 198.21,419.777 196.67,420.268 195.147,420.807 193.642,421.394 192.156,422.029 190.691,422.71 189.248,423.437 187.828,424.209 186.434,425.026 185.066,425.887 183.726,426.79 182.416,427.735 181.135,428.721 179.887,429.746 178.672,430.811 177.491,431.914 176.345,433.053 175.236,434.228 174.164,435.438 173.131,436.681 172.138,437.955 171.186,439.261 170.276,440.596 169.408,441.958 168.583,443.348 167.803,444.763 167.068,446.202 166.379,447.664 165.736,449.146 165.14,450.648 164.592,452.168 164.093,453.705 163.642,455.257 163.241,456.822 162.889,458.399 162.587,459.986 162.335,461.582 162.134,463.186 161.984,464.795 161.884,466.407 161.836,468.022 161.838,469.638 161.892,471.253 161.996,472.866 162.152,474.474 162.358,476.077 162.614,477.672 162.921,479.258 163.278,480.834 163.685,482.398 164.14,483.949 164.645,485.484 165.197,487.002 165.798,488.502 166.445,489.983 167.139,491.442 167.879,492.879 168.663,494.291 169.492,495.678 170.364,497.039 171.279,498.37 172.235,499.673 173.232,500.945 174.269,502.184 175.344,503.39 176.457,504.562 177.606,505.697 178.791,506.796 180.01,507.857 181.261,508.879 182.545,509.861 183.858,510.802 185.201,511.701 186.571,512.557 187.968,513.369 189.39,514.137 190.835,514.86 192.303,515.536 193.791,516.166 195.298,516.749 196.823,517.283 198.364,517.77 199.919,518.207 201.488,518.595 203.068,518.933 204.658,519.221 206.256,519.459 207.861,519.646 209.471,519.783 211.085,519.868 212.7,519.902 214.316,519.886 215.93,519.818 217.542,519.7 219.149,519.53 220.75,519.31 222.343,519.04 223.926,518.719 225.499,518.349 227.059,517.929 228.606,517.459 230.136,516.942 231.65,516.376 233.145,515.763 234.62,515.102 236.073,514.396 237.503,513.644 238.909,512.847 240.289,512.006 241.641,511.122 242.965,510.196 244.259,509.228 245.522,508.22 246.752,507.173 247.949,506.087 249.111,504.964 250.237,503.805 251.325,502.611 252.376,501.383 253.387,500.123 254.358,498.831 255.287,497.509 256.174,496.159 257.018,494.781 257.819,493.377 258.574,491.949 259.284,490.497 259.948,489.024 260.565,487.53 261.134,486.018 261.655,484.489 262.128,482.944 262.552,481.384 262.926,479.813 263.251,478.23 263.525,476.637 263.749,475.037 263.922,473.43 264.045,471.819 264.116,470.205 264.137,468.589 264.137,468.75 264.111,467.134 264.035,465.52 263.907,463.91 263.729,462.304 263.5,460.704 263.221,459.112 262.891,457.531 "
     id="polygon61"
     style="fill:#147d78;fill-opacity:1;stroke:#000000;stroke-width:1.5pt;stroke-dasharray:none;stroke-opacity:1" />
  <polygon
     points="242.701,461.076 242.444,460.141 242.157,459.215 241.841,458.298 241.497,457.392 241.124,456.497 240.723,455.615 240.294,454.745 239.838,453.889 239.355,453.049 238.846,452.224 238.311,451.415 237.751,450.624 237.166,449.85 236.557,449.096 235.925,448.361 235.269,447.647 234.592,446.953 233.892,446.282 233.172,445.633 232.432,445.007 231.673,444.404 230.894,443.826 230.098,443.273 229.285,442.745 228.455,442.243 227.611,441.768 226.751,441.319 225.878,440.898 224.992,440.505 224.094,440.139 223.184,439.803 222.265,439.495 221.336,439.216 220.399,438.967 219.455,438.748 218.504,438.559 217.548,438.399 216.587,438.27 215.623,438.172 214.655,438.104 213.687,438.066 212.717,438.059 211.748,438.083 210.78,438.137 209.814,438.222 208.852,438.337 207.893,438.483 206.94,438.659 205.992,438.865 205.052,439.101 204.119,439.366 203.196,439.661 202.282,439.984 201.379,440.337 200.487,440.717 199.608,441.126 198.742,441.562 197.89,442.026 197.054,442.516 196.233,443.032 195.429,443.574 194.643,444.141 193.875,444.732 193.126,445.348 192.396,445.987 191.688,446.648 191,447.332 190.335,448.037 189.692,448.763 189.072,449.508 188.476,450.273 187.905,451.056 187.359,451.857 186.838,452.675 186.343,453.509 185.875,454.358 185.434,455.221 185.021,456.098 184.635,456.988 184.278,457.889 183.949,458.801 183.649,459.723 183.379,460.654 183.138,461.593 182.927,462.539 182.745,463.492 182.594,464.449 182.474,465.411 182.384,466.377 182.324,467.344 182.295,468.313 182.296,469.283 182.328,470.252 182.391,471.219 182.484,472.184 182.608,473.146 182.762,474.103 182.946,475.055 183.16,476.001 183.404,476.939 183.678,477.869 183.98,478.79 184.312,479.701 184.672,480.601 185.061,481.49 185.477,482.365 185.921,483.227 186.391,484.075 186.889,484.907 187.412,485.723 187.961,486.522 188.535,487.304 189.133,488.067 189.755,488.81 190.4,489.534 191.068,490.237 191.757,490.918 192.468,491.578 193.199,492.214 193.95,492.828 194.72,493.417 195.508,493.981 196.314,494.521 197.136,495.034 197.974,495.522 198.827,495.982 199.695,496.416 200.575,496.822 201.468,497.2 202.372,497.549 203.287,497.87 204.212,498.162 205.145,498.424 206.086,498.657 207.034,498.86 207.988,499.033 208.947,499.175 209.91,499.288 210.876,499.37 211.844,499.421 212.814,499.441 213.783,499.432 214.752,499.391 215.719,499.32 216.683,499.218 217.643,499.086 218.599,498.924 219.549,498.731 220.493,498.509 221.429,498.257 222.357,497.976 223.275,497.665 224.183,497.326 225.08,496.958 225.965,496.561 226.837,496.138 227.695,495.686 228.539,495.208 229.367,494.704 230.178,494.173 230.973,493.618 231.749,493.037 232.507,492.432 233.245,491.804 233.963,491.152 234.66,490.479 235.336,489.783 235.989,489.067 236.619,488.33 237.226,487.574 237.808,486.799 238.366,486.005 238.898,485.195 239.404,484.368 239.885,483.526 240.338,482.669 240.764,481.798 241.162,480.914 241.532,480.018 241.874,479.111 242.187,478.193 242.47,477.266 242.725,476.331 242.949,475.388 243.144,474.438 243.309,473.482 243.443,472.522 243.547,471.558 243.62,470.592 243.663,469.623 243.675,468.654 243.676,468.75 243.66,467.781 243.614,466.812 243.538,465.846 243.431,464.882 243.294,463.922 243.126,462.967 242.928,462.018 "
     id="polygon64"
     style="fill:#6d94a3;fill-opacity:1;stroke:#000000;stroke-width:1.5pt;stroke-dasharray:none;stroke-opacity:1" />
  <polygon
     points="518.278,711.726 517.85,710.168 517.372,708.625 516.846,707.097 516.272,705.587 515.65,704.095 514.982,702.624 514.267,701.175 513.507,699.749 512.703,698.347 511.854,696.972 510.963,695.625 510.029,694.306 509.054,693.017 508.039,691.76 506.985,690.535 505.893,689.344 504.763,688.189 503.598,687.07 502.398,685.988 501.164,684.944 499.898,683.94 498.601,682.976 497.274,682.054 495.919,681.175 494.536,680.338 493.128,679.546 491.696,678.798 490.24,678.096 488.763,677.441 487.267,676.832 485.751,676.271 484.219,675.758 482.671,675.294 481.11,674.879 479.536,674.513 477.951,674.197 476.357,673.932 474.756,673.717 473.148,673.553 471.536,673.439 469.922,673.377 468.306,673.365 466.69,673.405 465.077,673.495 463.468,673.637 461.863,673.829 460.266,674.072 458.677,674.365 457.098,674.708 455.53,675.101 453.976,675.543 452.437,676.034 450.914,676.573 449.408,677.161 447.922,677.795 446.457,678.476 445.014,679.204 443.595,679.976 442.2,680.793 440.833,681.653 439.493,682.556 438.182,683.501 436.902,684.487 435.653,685.513 434.438,686.578 433.257,687.68 432.111,688.82 431.002,689.995 429.93,691.204 428.898,692.447 427.905,693.722 426.952,695.027 426.042,696.362 425.174,697.725 424.35,699.115 423.569,700.53 422.834,701.969 422.145,703.43 421.502,704.913 420.907,706.415 420.359,707.935 419.859,709.471 419.408,711.023 419.007,712.588 418.655,714.165 418.353,715.753 418.101,717.349 417.9,718.952 417.75,720.561 417.65,722.174 417.602,723.789 417.604,725.405 417.658,727.02 417.763,728.632 417.918,730.24 418.124,731.843 418.381,733.438 418.688,735.025 419.045,736.601 419.451,738.165 419.907,739.715 420.411,741.25 420.964,742.768 421.564,744.269 422.212,745.749 422.905,747.208 423.645,748.645 424.43,750.058 425.258,751.445 426.131,752.805 427.045,754.137 428.002,755.439 428.999,756.711 430.035,757.95 431.111,759.156 432.223,760.328 433.373,761.464 434.557,762.563 435.776,763.624 437.028,764.646 438.311,765.628 439.625,766.568 440.967,767.467 442.338,768.323 443.735,769.136 445.156,769.904 446.602,770.626 448.069,771.303 449.557,771.933 451.064,772.515 452.589,773.05 454.13,773.536 455.686,773.973 457.254,774.361 458.834,774.699 460.424,774.988 462.022,775.225 463.627,775.413 465.237,775.549 466.851,775.634 468.467,775.669 470.082,775.652 471.697,775.585 473.308,775.466 474.915,775.297 476.516,775.077 478.109,774.806 479.693,774.486 481.265,774.115 482.826,773.695 484.372,773.226 485.903,772.708 487.416,772.142 488.911,771.529 490.386,770.869 491.839,770.162 493.269,769.41 494.675,768.613 496.055,767.773 497.407,766.889 498.731,765.962 500.026,764.995 501.288,763.987 502.519,762.939 503.716,761.854 504.877,760.731 506.003,759.571 507.092,758.377 508.142,757.149 509.153,755.889 510.124,754.597 511.053,753.275 511.941,751.925 512.785,750.547 513.585,749.143 514.34,747.715 515.05,746.263 515.714,744.79 516.331,743.297 516.9,741.785 517.422,740.255 517.895,738.71 518.318,737.151 518.693,735.579 519.017,733.996 519.292,732.404 519.515,730.803 519.689,729.197 519.811,727.586 519.883,725.971 519.903,724.356 519.903,724.516 519.878,722.901 519.801,721.287 519.674,719.676 519.495,718.07 519.267,716.47 518.987,714.879 518.658,713.297 "
     id="polygon67"
     style="fill:#147d78;fill-opacity:1;stroke:#000000;stroke-width:1.5pt;stroke-dasharray:none;stroke-opacity:1" />
  <polygon
     points="498.467,716.842 498.21,715.908 497.923,714.981 497.608,714.065 497.263,713.158 496.89,712.264 496.489,711.381 496.06,710.511 495.604,709.656 495.122,708.815 494.613,707.99 494.078,707.181 493.518,706.39 492.933,705.617 492.324,704.862 491.691,704.128 491.036,703.413 490.358,702.72 489.659,702.048 488.939,701.399 488.199,700.773 487.439,700.171 486.661,699.592 485.865,699.039 485.051,698.511 484.222,698.009 483.377,697.534 482.517,697.085 481.644,696.664 480.758,696.271 479.86,695.906 478.951,695.569 478.031,695.261 477.103,694.983 476.166,694.734 475.221,694.514 474.271,694.325 473.314,694.166 472.353,694.037 471.389,693.938 470.422,693.87 469.453,693.832 468.484,693.826 467.514,693.849 466.546,693.904 465.581,693.988 464.618,694.104 463.659,694.25 462.706,694.425 461.759,694.631 460.818,694.867 459.886,695.132 458.962,695.427 458.048,695.751 457.145,696.103 456.253,696.484 455.374,696.892 454.508,697.329 453.657,697.792 452.82,698.282 452,698.798 451.196,699.34 450.409,699.907 449.641,700.499 448.892,701.114 448.163,701.753 447.454,702.415 446.767,703.098 446.101,703.803 445.458,704.529 444.839,705.275 444.243,706.04 443.671,706.823 443.125,707.624 442.604,708.441 442.11,709.275 441.642,710.124 441.201,710.988 440.787,711.865 440.401,712.754 440.044,713.655 439.715,714.567 439.416,715.489 439.145,716.42 438.904,717.359 438.693,718.306 438.512,719.258 438.361,720.216 438.24,721.178 438.15,722.143 438.09,723.111 438.061,724.08 438.063,725.049 438.095,726.018 438.158,726.986 438.251,727.951 438.374,728.912 438.528,729.87 438.713,730.821 438.927,731.767 439.171,732.705 439.444,733.635 439.747,734.557 440.078,735.468 440.438,736.368 440.827,737.256 441.243,738.132 441.687,738.994 442.158,739.841 442.655,740.673 443.178,741.489 443.727,742.289 444.301,743.07 444.899,743.833 445.521,744.577 446.166,745.3 446.834,746.003 447.524,746.685 448.234,747.344 448.966,747.981 449.717,748.594 450.487,749.183 451.275,749.748 452.08,750.287 452.903,750.801 453.741,751.288 454.594,751.749 455.461,752.182 456.341,752.588 457.234,752.966 458.139,753.316 459.053,753.636 459.978,753.928 460.911,754.19 461.853,754.423 462.801,754.626 463.755,754.799 464.713,754.942 465.676,755.054 466.642,755.136 467.611,755.187 468.58,755.208 469.549,755.198 470.518,755.157 471.485,755.086 472.449,754.985 473.41,754.853 474.365,754.69 475.316,754.498 476.259,754.276 477.195,754.024 478.123,753.742 479.042,753.431 479.95,753.092 480.847,752.724 481.732,752.328 482.604,751.904 483.462,751.453 484.305,750.975 485.133,750.47 485.944,749.94 486.739,749.384 487.515,748.803 488.273,748.199 489.011,747.57 489.729,746.919 490.426,746.245 491.102,745.549 491.755,744.833 492.385,744.096 492.992,743.34 493.574,742.565 494.132,741.772 494.664,740.962 495.171,740.135 495.651,739.293 496.104,738.436 496.53,737.565 496.928,736.681 497.299,735.785 497.64,734.877 497.953,733.96 498.237,733.033 498.491,732.097 498.716,731.154 498.91,730.204 499.075,729.249 499.209,728.289 499.313,727.325 499.387,726.358 499.43,725.389 499.442,724.42 499.442,724.516 499.427,723.547 499.381,722.579 499.304,721.612 499.197,720.648 499.06,719.689 498.892,718.734 498.695,717.785 "
     id="polygon70"
     style="fill:#6d94a3;fill-opacity:1;stroke:#000000;stroke-width:1.5pt;stroke-dasharray:none;stroke-opacity:1" />
</svg>
